<svg xmlns="http://www.w3.org/2000/svg" x="0px" y="0px"
width="100" height="100"
viewBox="0 0 100 100">
<circle cx="51" cy="51" r="44" opacity=".35"></circle><circle cx="49" cy="49" r="44" fill="#f2f2f2"></circle><path fill="#f2f2f2" d="M50,90C27.393,90,9,71.607,9,49S27.393,8,50,8s41,18.393,41,41S72.607,90,50,90z"></path><path fill="#9ba7c5" d="M49,16c18.196,0,33,14.804,33,33S67.196,82,49,82S16,67.196,16,49S30.804,16,49,16 M49,13 c-19.882,0-36,16.118-36,36s16.118,36,36,36s36-16.118,36-36S68.882,13,49,13L49,13z"></path><path fill="#9ba7c5" d="M49,29c11.028,0,20,8.972,20,20s-8.972,20-20,20s-20-8.972-20-20S37.972,29,49,29 M49,24 c-13.807,0-25,11.193-25,25s11.193,25,25,25s25-11.193,25-25S62.807,24,49,24L49,24z"></path><path fill="#40396e" d="M49,88c-21.505,0-39-17.495-39-39s17.495-39,39-39s39,17.495,39,39S70.505,88,49,88z M49,13 c-19.851,0-36,16.149-36,36s16.149,36,36,36s36-16.149,36-36S68.851,13,49,13z"></path><rect width="4" height="11" x="47" y="15" fill="#9ba7c5"></rect><rect width="4" height="11" x="47" y="72" fill="#9ba7c5"></rect><rect width="4" height="11" x="22.318" y="29.25" fill="#9ba7c5" transform="rotate(-60 24.318 34.751)"></rect><rect width="4" height="11" x="71.682" y="57.75" fill="#9ba7c5" transform="rotate(-60 73.683 63.252)"></rect><rect width="4" height="11" x="22.318" y="57.75" fill="#9ba7c5" transform="rotate(-120 24.318 63.25)"></rect><rect width="4" height="11" x="71.682" y="29.25" fill="#9ba7c5" transform="rotate(-120 73.682 34.751)"></rect><path fill="#9ba7c5" d="M42,25l-1-5c0,0,4-1,8-1l1,8h-8"></path><path fill="#9ba7c5" d="M56,25l1-5c0,0-4-1-8-1l-1,8h8"></path><path fill="#9ba7c5" d="M56,73l1,5c0,0-4,1-8,1l-1-8h8"></path><path fill="#9ba7c5" d="M42,73l-1,5c0,0,4,1,8,1l1-8h-8"></path><g><path fill="#9ba7c5" d="M73.285,54.938l4.83,1.634c0,0-1.134,3.964-3.134,7.428l-7.428-3.134l4-6.928"></path><path fill="#9ba7c5" d="M66.285,67.062l3.83,3.366c0,0,2.866-2.964,4.866-6.428l-6.428-4.866l-4,6.928"></path><g><path fill="#9ba7c5" d="M24.715,43.062l-4.83-1.634c0,0,1.134-3.964,3.134-7.428l7.428,3.134l-4,6.928"></path><path fill="#9ba7c5" d="M31.715,30.938l-3.83-3.366c0,0-2.866,2.964-4.866,6.428l6.428,4.866l4-6.928"></path></g></g><g><path fill="#9ba7c5" d="M24.715,54.938l-4.83,1.634c0,0,1.134,3.964,3.134,7.428l7.428-3.134l-4-6.928"></path><path fill="#9ba7c5" d="M31.715,67.062l-3.83,3.366c0,0-2.866-2.964-4.866-6.428l6.428-4.866l4,6.928"></path><g><path fill="#9ba7c5" d="M73.285,43.062l4.83-1.634c0,0-1.134-3.964-3.134-7.428l-7.428,3.134l4,6.928"></path><path fill="#9ba7c5" d="M66.285,30.938l3.83-3.366c0,0,2.866,2.964,4.866,6.428l-6.428,4.866l-4-6.928"></path></g></g><g><polygon fill="#9ba7c5" points="60,47 60,52 71,55 71,44"></polygon><polygon fill="#9ba7c5" points="38,47 38,52 27,55 27,44"></polygon></g><g><polygon fill="#9ba7c5" points="45.665,60.276 41.335,57.776 33.237,65.803 42.763,71.303"></polygon><polygon fill="#9ba7c5" points="56.665,41.224 52.335,38.724 55.237,27.697 64.763,33.197"></polygon></g><g><polygon fill="#9ba7c5" points="41.335,41.224 45.665,38.724 42.763,27.697 33.237,33.197"></polygon><polygon fill="#9ba7c5" points="52.335,60.276 56.665,57.776 64.763,65.803 55.237,71.303"></polygon></g><g><circle cx="49" cy="49.5" r="11.5" fill="#f2f2f2"></circle></g>
</svg>